<svg width="292" height="292" viewBox="0 0 292 292" fill="none" xmlns="http://www.w3.org/2000/svg">
<path d="M236.77 66.6762C238.773 65.4696 240.821 66.1399 242.779 66.6762C250.391 68.7766 255.777 75.7928 255.911 83.7922C255.956 85.8032 255.867 87.8142 255.867 89.7806C255.288 89.7806 254.932 90.1381 254.487 90.4509C248.878 94.4729 243.18 98.495 237.616 102.562C235.345 104.215 232.853 105.511 230.939 107.612C230.137 107.612 229.559 108.148 228.98 108.55C210.462 121.376 191.944 134.157 173.471 146.983C164.301 153.329 155.131 159.764 145.961 166.155C145.694 166.155 145.427 166.155 145.204 166.155C144.804 165.842 144.448 165.439 144.047 165.171C121.478 149.396 98.9096 133.621 76.3409 117.845C71.7115 114.628 67.082 111.365 62.4525 108.148C61.9184 107.79 61.4287 107.031 60.761 107.433C60.1378 107.79 60.5384 108.639 60.4494 109.31C60.4049 109.533 60.4494 109.757 60.4494 109.98C60.4494 147.296 60.4494 184.611 60.4494 221.927C60.4494 222.731 60.4939 223.58 60.5384 224.385C60.5384 224.832 60.4939 225.234 60.4939 225.681C52.0362 226.708 44.3353 225.547 39.0381 217.86C37.124 215.045 36.0111 211.916 36.0111 208.431C36.0111 166.735 35.9666 125.085 36.0556 83.39C36.0556 74.899 42.9108 67.3912 51.324 66.1846C52.6594 66.0059 53.9948 65.8271 55.1522 66.7209C55.4193 66.989 55.6419 67.2572 55.9535 67.4806C85.3773 89.3784 114.801 111.276 144.225 133.219C145.382 134.068 146.139 134.023 147.297 133.174C170.8 115.745 194.348 98.3609 217.851 80.9768C224.083 76.195 230.404 71.4133 236.77 66.6762Z" fill="#E65A4D"/>
<path d="M236.77 66.676C230.404 71.4131 224.083 76.1948 217.718 80.9319C194.214 98.3607 170.666 115.7 147.163 133.129C146.006 133.978 145.293 134.023 144.092 133.174C114.712 111.231 85.2883 89.3781 55.8645 67.4357C55.5529 67.2123 55.3303 66.9441 55.0632 66.676C55.5974 65.7822 56.5322 66.095 57.2889 66.095C116.359 66.095 175.474 66.095 234.544 66.095C235.301 66.095 236.191 65.7822 236.77 66.676Z" fill="#F6F4EC"/>
<path d="M60.4493 224.295C60.4048 223.491 60.3603 222.642 60.3603 221.837C60.3603 184.522 60.3603 147.206 60.3603 109.891C60.3603 109.667 60.3158 109.444 60.3603 109.22C60.4493 108.595 60.0487 107.746 60.6719 107.343C61.3396 106.941 61.8737 107.701 62.3634 108.058C66.9929 111.276 71.6223 114.538 76.2518 117.756C98.8205 133.531 121.389 149.307 143.958 165.082C144.358 165.395 144.759 165.752 145.115 166.065C144.937 166.244 144.715 166.378 144.537 166.557C144.403 166.691 144.225 166.869 144.091 167.004C143.735 167.004 143.379 167.093 143.201 167.45C143.068 167.585 142.89 167.763 142.756 167.897C142.711 167.987 142.622 168.031 142.578 168.121C142.667 168.076 142.711 167.987 142.8 167.942C142.934 167.808 143.112 167.629 143.246 167.495C143.602 167.495 143.958 167.406 144.136 167.048C144.269 166.914 144.447 166.735 144.581 166.601C145.026 166.601 145.471 166.557 145.916 166.557C152.104 170.892 158.336 175.182 164.523 179.517C182.952 192.342 201.381 205.124 219.765 218.039C223.059 220.363 226.665 222.374 229.603 225.189C228.802 225.949 227.823 225.457 226.932 225.591C226.977 224.563 226.086 224.295 225.419 223.848C222.036 221.48 218.564 219.201 215.27 216.743C209.75 212.676 204.141 208.788 198.532 204.855C193.858 201.593 189.229 198.197 184.421 195.113C180.237 192.432 176.364 189.214 172.18 186.488C167.461 183.449 163.01 180.053 158.336 176.969C154.463 174.422 150.679 171.696 146.896 169.015C146.139 168.478 145.471 168.255 144.67 168.791C143.068 169.953 141.02 170.713 139.684 171.964C135.856 175.495 131.182 177.774 127.176 180.991C122.057 185.058 116.537 188.678 111.062 192.298C101.981 198.331 93.1672 204.855 84.1308 210.933C78.7446 214.553 73.4029 218.217 68.2393 222.195C66.8148 223.267 64.9007 223.759 64.0104 225.546C63.1201 225.457 62.1408 225.815 61.2951 225.234C77.2311 214.061 93.1672 202.934 109.059 191.761C111.151 190.287 113.51 189.125 115.246 187.158C115.558 187.069 115.958 187.024 115.914 186.577C115.914 186.533 115.825 186.443 115.78 186.443C115.335 186.399 115.246 186.756 115.157 187.069C113.555 187.158 112.575 188.41 111.373 189.214C94.4136 200.967 77.4092 212.631 60.4493 224.295ZM137.014 172.009C137.147 171.875 137.325 171.696 137.459 171.562C137.815 171.562 138.171 171.472 138.349 171.115C138.483 170.981 138.661 170.802 138.794 170.668C139.15 170.668 139.506 170.579 139.684 170.221C139.729 170.132 139.818 170.087 139.863 169.998C139.774 170.042 139.729 170.132 139.64 170.177C139.284 170.177 138.928 170.266 138.75 170.623C138.616 170.757 138.438 170.936 138.305 171.07C137.948 171.07 137.592 171.16 137.414 171.517C137.281 171.696 137.147 171.83 137.014 172.009C136.925 172.053 136.836 172.098 136.791 172.188C136.88 172.143 136.969 172.098 137.014 172.009ZM131.227 175.986C130.871 175.986 130.515 176.075 130.337 176.433C130.069 176.478 129.713 176.478 129.669 176.88C129.669 176.969 129.847 177.148 129.936 177.148C130.292 177.103 130.337 176.791 130.381 176.522C130.737 176.478 131.049 176.433 131.227 175.986C131.405 175.897 131.583 175.718 131.716 175.584C132.073 175.584 132.429 175.495 132.607 175.137C132.74 175.003 132.918 174.824 133.052 174.69C133.408 174.69 133.764 174.601 133.942 174.243C133.987 174.154 134.076 174.109 134.12 174.02C134.031 174.064 133.987 174.154 133.898 174.199C133.542 174.199 133.185 174.288 133.007 174.645C132.874 174.779 132.696 174.958 132.562 175.092C132.206 175.092 131.85 175.182 131.672 175.539C131.494 175.718 131.36 175.852 131.227 175.986ZM125.44 180.053C125.084 180.053 124.728 180.142 124.55 180.5C124.194 180.544 123.837 180.589 123.882 181.081C123.882 181.125 123.971 181.215 124.016 181.215C124.505 181.259 124.55 180.902 124.594 180.544C124.95 180.5 125.262 180.41 125.44 180.053C125.618 179.963 125.752 179.785 125.93 179.651C126.286 179.651 126.642 179.561 126.82 179.204C126.953 179.07 127.131 178.891 127.265 178.757C127.621 178.757 127.977 178.667 128.155 178.31C128.2 178.221 128.289 178.176 128.333 178.087C128.244 178.131 128.2 178.221 128.111 178.265C127.755 178.265 127.399 178.355 127.221 178.712C127.087 178.846 126.909 179.025 126.775 179.159C126.419 179.159 126.063 179.248 125.885 179.606C125.707 179.74 125.573 179.874 125.44 180.053ZM120.989 183.226C121.345 183.181 121.701 183.136 121.656 182.645C121.656 182.6 121.567 182.511 121.523 182.511C121.033 182.466 120.989 182.824 120.944 183.181C120.588 183.181 120.276 183.27 120.054 183.628C119.431 183.673 118.985 183.985 118.718 184.522C118.407 184.611 118.006 184.611 118.051 185.103C118.051 185.147 118.14 185.237 118.184 185.237C118.629 185.281 118.718 184.924 118.763 184.566C119.386 184.566 120.009 184.522 120.098 183.673C120.499 183.628 120.81 183.539 120.989 183.226ZM135.589 172.634C135.545 172.768 135.456 172.903 135.411 172.992C135.545 173.037 135.678 173.171 135.767 173.126C135.856 173.081 135.901 172.903 135.945 172.768C135.812 172.724 135.678 172.679 135.589 172.634ZM123.081 181.885C123.036 181.751 122.992 181.572 122.903 181.572C122.814 181.528 122.591 181.617 122.547 181.706C122.413 181.885 122.502 182.109 122.725 182.109C122.858 182.109 122.947 181.974 123.081 181.885ZM141.599 169.149C141.643 169.015 141.688 168.881 141.777 168.791C141.643 168.746 141.51 168.612 141.421 168.657C141.332 168.702 141.287 168.881 141.242 169.015C141.332 169.059 141.465 169.104 141.599 169.149ZM117.294 185.862C117.205 185.728 117.116 185.594 117.071 185.55C116.982 185.55 116.76 185.639 116.76 185.728C116.671 185.952 116.804 186.131 117.027 186.086C117.116 186.086 117.205 185.952 117.294 185.862Z" fill="#E6E3D6"/>
<path d="M229.603 225.234C226.665 222.374 223.104 220.407 219.766 218.083C201.381 205.213 182.952 192.387 164.523 179.561C158.336 175.226 152.104 170.936 145.917 166.601C145.917 166.467 145.872 166.289 145.872 166.155C155.042 159.764 164.212 153.373 173.382 146.983C191.9 134.157 210.418 121.376 228.891 108.55C229.47 108.148 230.048 107.612 230.85 107.612C230.85 146.938 230.85 186.265 230.85 225.636C230.493 225.502 230.048 225.368 229.603 225.234Z" fill="#B6B5AC"/>
<path d="M64.0105 225.636C64.8563 223.849 66.8149 223.357 68.2393 222.284C73.403 218.352 78.7447 214.643 84.1309 211.023C93.1673 204.9 101.981 198.42 111.062 192.387C116.537 188.767 122.057 185.148 127.176 181.081C131.227 177.863 135.856 175.584 139.685 172.054C141.064 170.802 143.068 170.043 144.67 168.881C145.427 168.3 146.095 168.523 146.896 169.104C150.68 171.786 154.463 174.512 158.336 177.059C163.01 180.142 167.461 183.584 172.18 186.578C176.364 189.259 180.237 192.477 184.421 195.203C189.229 198.286 193.858 201.683 198.532 204.945C204.141 208.878 209.794 212.766 215.27 216.832C218.608 219.29 222.036 221.569 225.419 223.938C226.042 224.385 226.977 224.653 226.932 225.681C172.625 225.636 118.318 225.636 64.0105 225.636Z" fill="#E6E3D6"/>
<path d="M230.939 225.636C230.939 186.309 230.939 146.983 230.939 107.611C232.853 105.511 235.346 104.215 237.616 102.561C243.225 98.45 248.878 94.4726 254.487 90.4506C254.887 90.1378 255.288 89.7803 255.867 89.7803C255.911 90.54 255.956 91.255 255.956 92.0147C255.956 130.045 255.956 168.121 256 206.151C256 208.743 255.911 211.335 255.288 213.927C254.175 218.709 251.326 222.016 246.697 223.669C241.578 225.457 236.28 225.948 230.939 225.636Z" fill="#B1392F"/>
<path d="M115.246 187.248C113.51 189.214 111.151 190.376 109.059 191.851C93.1672 203.023 77.2311 214.195 61.2951 225.323C60.9835 225.412 60.7164 225.502 60.4048 225.591C60.4048 225.144 60.4493 224.742 60.4493 224.295C77.4537 212.631 94.4136 200.967 111.418 189.303C112.62 188.499 113.555 187.203 115.202 187.158L115.246 187.248Z" fill="#BEBDB3"/>
<path d="M145.917 166.154C145.917 166.288 145.917 166.467 145.961 166.601C145.516 166.601 145.071 166.646 144.626 166.646C144.804 166.467 145.026 166.333 145.204 166.154C145.382 166.154 145.65 166.154 145.917 166.154Z" fill="#C7C5BB"/>
<path d="M118.718 184.477C118.985 183.941 119.43 183.628 120.054 183.583L120.098 183.628C120.009 184.477 119.386 184.522 118.763 184.522L118.718 184.477Z" fill="#BEBDB3"/>
<path d="M135.589 172.634C135.723 172.679 135.856 172.724 135.945 172.768C135.901 172.902 135.856 173.081 135.767 173.126C135.678 173.171 135.545 173.036 135.411 172.992C135.456 172.902 135.5 172.768 135.589 172.634Z" fill="#C4C2B8"/>
<path d="M120.944 183.136C120.989 182.779 121.078 182.466 121.523 182.466C121.567 182.466 121.656 182.555 121.656 182.6C121.656 183.091 121.3 183.091 120.989 183.181C120.989 183.226 120.944 183.136 120.944 183.136Z" fill="#BEBDB3"/>
<path d="M123.081 181.885C122.992 181.975 122.858 182.109 122.769 182.064C122.547 182.064 122.458 181.841 122.591 181.662C122.636 181.573 122.858 181.528 122.947 181.528C122.992 181.573 122.992 181.796 123.081 181.885Z" fill="#BEBDB3"/>
<path d="M141.599 169.149C141.465 169.104 141.332 169.059 141.243 168.97C141.287 168.836 141.332 168.657 141.421 168.612C141.51 168.568 141.643 168.702 141.777 168.746C141.688 168.88 141.643 169.014 141.599 169.149Z" fill="#C7C5BB"/>
<path d="M124.595 180.544C124.55 180.902 124.461 181.215 124.016 181.215C123.971 181.215 123.882 181.125 123.882 181.081C123.882 180.589 124.238 180.589 124.55 180.5C124.55 180.5 124.595 180.544 124.595 180.544Z" fill="#BEBDB3"/>
<path d="M130.381 176.522C130.337 176.835 130.292 177.103 129.936 177.148C129.847 177.148 129.669 176.969 129.669 176.88C129.713 176.522 130.025 176.478 130.337 176.433C130.337 176.478 130.381 176.522 130.381 176.522Z" fill="#C2C0B6"/>
<path d="M118.807 184.566C118.718 184.924 118.674 185.237 118.229 185.237C118.184 185.237 118.095 185.147 118.095 185.103C118.051 184.611 118.451 184.611 118.763 184.522C118.718 184.477 118.807 184.566 118.807 184.566Z" fill="#BEBDB3"/>
<path d="M117.294 185.863C117.205 185.952 117.116 186.086 117.027 186.086C116.76 186.131 116.671 185.952 116.76 185.729C116.804 185.639 116.982 185.55 117.071 185.55C117.116 185.594 117.205 185.773 117.294 185.863Z" fill="#BEBDB3"/>
<path d="M115.157 187.158C115.246 186.801 115.291 186.488 115.78 186.533C115.825 186.533 115.914 186.622 115.914 186.667C115.958 187.158 115.558 187.158 115.246 187.248C115.246 187.248 115.157 187.158 115.157 187.158Z" fill="#BEBDB3"/>
<path d="M138.349 171.115C138.171 171.473 137.815 171.562 137.459 171.562L137.414 171.517C137.637 171.204 137.948 171.115 138.349 171.115Z" fill="#C4C2B8"/>
<path d="M120.098 183.583C120.276 183.226 120.633 183.136 120.989 183.136L121.033 183.181C120.855 183.538 120.499 183.628 120.143 183.628C120.143 183.673 120.098 183.583 120.098 183.583Z" fill="#BEBDB3"/>
<path d="M133.008 174.69C133.186 174.333 133.542 174.243 133.898 174.243L133.942 174.288C133.72 174.601 133.408 174.69 133.008 174.69Z" fill="#C2C0B6"/>
<path d="M132.562 175.137C132.384 175.495 132.028 175.584 131.672 175.584C131.85 175.227 132.162 175.137 132.562 175.137Z" fill="#C2C0B6"/>
<path d="M127.221 178.712C127.399 178.355 127.755 178.265 128.111 178.265L128.156 178.31C127.933 178.623 127.621 178.712 127.221 178.712Z" fill="#BEBDB3"/>
<path d="M126.776 179.159C126.597 179.516 126.241 179.606 125.885 179.606C126.063 179.204 126.375 179.159 126.776 179.159Z" fill="#BEBDB3"/>
<path d="M125.44 180.053C125.262 180.41 124.906 180.5 124.55 180.5L124.505 180.455C124.728 180.142 125.039 180.053 125.44 180.053Z" fill="#BEBDB3"/>
<path d="M144.136 167.093C143.958 167.451 143.602 167.54 143.246 167.54L143.201 167.495C143.424 167.182 143.735 167.093 144.136 167.093Z" fill="#C7C5BB"/>
<path d="M138.794 170.668C138.972 170.311 139.329 170.221 139.685 170.221C139.507 170.579 139.195 170.668 138.794 170.668Z" fill="#C4C2B8"/>
<path d="M131.227 176.031C131.049 176.388 130.693 176.478 130.337 176.478L130.292 176.433C130.515 176.12 130.826 176.031 131.227 176.031C131.227 176.031 131.227 175.986 131.227 176.031Z" fill="#C2C0B6"/>
<path d="M126.775 179.159C126.909 179.025 127.087 178.846 127.221 178.712L127.265 178.757C127.087 178.891 126.953 179.025 126.775 179.159Z" fill="#BEBDB3"/>
<path d="M131.672 175.584C131.538 175.718 131.36 175.897 131.227 176.031L131.182 175.986C131.36 175.852 131.494 175.718 131.672 175.584Z" fill="#C2C0B6"/>
<path d="M137.014 172.009C137.147 171.875 137.325 171.696 137.459 171.562L137.503 171.607C137.325 171.741 137.192 171.875 137.014 172.009Z" fill="#C4C2B8"/>
<path d="M133.898 174.243C133.987 174.199 134.031 174.109 134.121 174.065C134.031 174.109 133.987 174.199 133.898 174.243Z" fill="#C2C0B6"/>
<path d="M139.685 170.221C139.774 170.177 139.818 170.087 139.907 170.042C139.818 170.087 139.774 170.177 139.685 170.221Z" fill="#C4C2B8"/>
<path d="M142.801 167.987C142.712 168.032 142.667 168.121 142.578 168.166C142.667 168.121 142.712 168.032 142.801 167.987Z" fill="#C7C5BB"/>
<path d="M142.801 167.987C142.934 167.853 143.112 167.674 143.246 167.54L143.29 167.584C143.112 167.719 142.979 167.853 142.801 167.987Z" fill="#C7C5BB"/>
<path d="M138.349 171.115C138.483 170.981 138.661 170.802 138.794 170.668L138.839 170.713C138.661 170.847 138.527 170.981 138.349 171.115Z" fill="#C4C2B8"/>
<path d="M144.581 166.646C144.447 166.78 144.269 166.959 144.136 167.093L144.091 167.048C144.269 166.914 144.403 166.78 144.581 166.646Z" fill="#C7C5BB"/>
<path d="M137.014 172.009C136.925 172.053 136.88 172.143 136.791 172.187C136.88 172.143 136.925 172.053 137.014 172.009Z" fill="#C4C2B8"/>
<path d="M128.111 178.265C128.2 178.221 128.244 178.131 128.333 178.087C128.244 178.131 128.2 178.221 128.111 178.265Z" fill="#BEBDB3"/>
<path d="M133.007 174.69C132.874 174.824 132.696 175.003 132.562 175.137L132.518 175.093C132.696 174.959 132.829 174.824 133.007 174.69Z" fill="#C2C0B6"/>
<path d="M125.885 179.606C125.752 179.74 125.574 179.919 125.44 180.053L125.396 180.008C125.574 179.874 125.707 179.74 125.885 179.606Z" fill="#BEBDB3"/>
</svg>
