<svg width="292" height="292" viewBox="0 0 292 292" fill="none" xmlns="http://www.w3.org/2000/svg">
<path fill-rule="evenodd" clip-rule="evenodd" d="M217.918 87.282C217.918 89.8927 217.144 92.4448 215.693 94.6155C214.243 96.7863 212.181 98.4781 209.769 99.4772C207.357 100.476 204.703 100.738 202.143 100.228C199.582 99.719 197.23 98.4619 195.384 96.6158C193.538 94.7698 192.281 92.4177 191.772 89.8572C191.262 87.2966 191.524 84.6426 192.523 82.2306C193.522 79.8186 195.214 77.757 197.384 76.3066C199.555 74.8562 202.107 74.082 204.718 74.082C208.219 74.082 211.576 75.4727 214.052 77.9482C216.527 80.4237 217.918 83.7811 217.918 87.282ZM146 182.666C138.748 182.666 131.659 180.516 125.629 176.487C119.6 172.458 114.9 166.731 112.125 160.031C109.35 153.332 108.624 145.959 110.039 138.847C111.453 131.734 114.945 125.201 120.073 120.073C125.201 114.945 131.734 111.453 138.847 110.039C145.959 108.624 153.332 109.35 160.031 112.125C166.731 114.9 172.458 119.6 176.487 125.629C180.516 131.659 182.666 138.748 182.666 146C182.666 155.724 178.803 165.051 171.927 171.927C165.051 178.803 155.724 182.666 146 182.666ZM146 89.513C134.828 89.513 123.907 92.8259 114.618 99.0328C105.328 105.24 98.0882 114.062 93.8128 124.383C89.5374 134.705 88.4188 146.063 90.5984 157.02C92.7779 167.977 98.1578 178.042 106.058 185.942C113.958 193.842 124.023 199.222 134.98 201.402C145.937 203.581 157.295 202.463 167.617 198.187C177.938 193.912 186.76 186.672 192.967 177.382C199.174 168.093 202.487 157.172 202.487 146C202.487 138.582 201.026 131.237 198.187 124.383C195.349 117.53 191.188 111.303 185.943 106.057C180.697 100.812 174.47 96.6512 167.617 93.8125C160.763 90.9739 153.418 89.5129 146 89.513V89.513ZM146 55.82C175.372 55.82 178.85 55.932 190.449 56.461C201.174 56.951 206.999 58.742 210.875 60.249C215.653 62.0127 219.975 64.8245 223.523 68.478C227.177 72.0257 229.989 76.3478 231.752 81.126C233.258 85.002 235.052 90.826 235.54 101.552C236.069 113.152 236.181 116.631 236.181 146.002C236.181 175.373 236.069 178.852 235.54 190.451C235.05 201.176 233.259 207.001 231.752 210.877C229.921 215.621 227.118 219.93 223.522 223.525C219.927 227.121 215.618 229.924 210.874 231.755C206.998 233.261 201.174 235.055 190.448 235.543C178.848 236.072 175.371 236.184 145.999 236.184C116.627 236.184 113.147 236.072 101.549 235.543C90.824 235.053 84.999 233.262 81.123 231.755C76.3452 229.991 72.0233 227.179 68.475 223.526C64.8214 219.978 62.0095 215.656 60.246 210.878C58.74 207.002 56.946 201.178 56.458 190.452C55.929 178.852 55.817 175.373 55.817 146.003C55.817 116.633 55.929 113.153 56.458 101.553C56.948 90.828 58.739 85.003 60.246 81.127C62.0097 76.3492 64.8215 72.0273 68.475 68.479C72.023 64.8247 76.3454 62.0127 81.124 60.25C85 58.744 90.824 56.95 101.55 56.462C113.15 55.932 116.628 55.821 146 55.821V55.82ZM146 36C116.126 36 112.38 36.127 100.647 36.662C88.939 37.197 80.942 39.056 73.947 41.775C66.6066 44.5365 59.9572 48.8665 54.463 54.463C48.8665 59.9572 44.5365 66.6066 41.775 73.947C39.056 80.947 37.196 88.94 36.662 100.647C36.127 112.38 36 116.126 36 146C36 175.874 36.127 179.62 36.662 191.353C37.197 203.061 39.056 211.053 41.775 218.053C44.5365 225.393 48.8665 232.043 54.463 237.537C59.9578 243.133 66.607 247.463 73.947 250.225C80.947 252.944 88.94 254.804 100.647 255.338C112.38 255.873 116.126 256 146 256C175.874 256 179.62 255.873 191.353 255.338C203.061 254.803 211.053 252.944 218.053 250.225C225.36 247.399 231.997 243.077 237.537 237.537C243.077 231.997 247.399 225.36 250.225 218.053C252.944 211.053 254.804 203.06 255.338 191.353C255.873 179.621 256 175.874 256 146C256 116.126 255.873 112.38 255.338 100.647C254.803 88.939 252.944 80.947 250.225 73.947C247.463 66.607 243.133 59.9578 237.537 54.463C232.042 48.8672 225.393 44.5372 218.053 41.775C211.053 39.056 203.06 37.196 191.353 36.662C179.62 36.127 175.874 36 146 36Z" fill="url(#paint0_radial)"/>
<defs>
<radialGradient id="paint0_radial" cx="0" cy="0" r="1" gradientUnits="userSpaceOnUse" gradientTransform="translate(68.78 256.66) scale(281.16)">
<stop stop-color="#FFB140"/>
<stop offset="0.256" stop-color="#FF5445"/>
<stop offset="0.599" stop-color="#FC2B82"/>
<stop offset="1" stop-color="#8E40B7"/>
</radialGradient>
</defs>
</svg>
