<svg width="800" height="292" viewBox="0 0 800 292" fill="none" xmlns="http://www.w3.org/2000/svg">
<path d="M651.018 43H148.982C92.1065 43 46 89.1147 46 146C46 202.885 92.1065 249 148.982 249H651.018C707.893 249 754 202.885 754 146C754 89.1147 707.893 43 651.018 43Z" fill="url(#paint0_linear)"/>
<path d="M448.486 165.275V112.882H440.453V165.275H448.486ZM412.433 165.312C418.517 165.312 422.904 164.294 425.595 162.257C429.316 159.441 431.176 154.826 431.176 148.414C431.176 144.642 430.56 140.757 429.328 136.758L429.102 136.079L428.423 136.268L422.238 137.815L421.522 138.003L421.71 138.72C422.615 142.316 423.068 145.585 423.068 148.527C423.068 152.249 422.125 154.663 420.239 155.769C418.882 156.498 416.279 156.863 412.433 156.863H409.039V165.312H412.433ZM426.794 183.356L427.077 183.073L432.565 177.585L432.847 177.302L426.754 171.208L426.472 171.491L420.984 176.979L420.701 177.262L420.984 177.544L426.512 183.073L426.794 183.356ZM414.528 183.356L420.58 177.302L414.487 171.208L414.205 171.491L408.717 176.979L408.435 177.262L408.717 177.544L414.245 183.073L414.528 183.356ZM396.776 134.433L397.059 134.151L402.546 128.662L402.829 128.38L402.546 128.097L397.018 122.568L396.736 122.286L390.683 128.339L396.776 134.433ZM388.296 165.312C393.073 165.312 396.769 163.728 399.384 160.56C401.496 163.728 404.953 165.312 409.755 165.312H410.622V156.863H409.83C408.775 156.863 407.863 156.744 407.096 156.505C406.329 156.266 405.682 155.895 405.154 155.392C404.626 154.889 404.211 154.26 403.91 153.506C403.633 152.852 403.444 151.947 403.344 150.79L402.74 142.077L402.703 141.285L401.911 141.36L395.688 142.115L394.972 142.19L395.047 142.907L395.236 146C395.311 147.106 395.349 148.276 395.349 149.508C395.349 150.664 395.273 151.658 395.122 152.488C394.846 153.946 394.142 155.04 393.01 155.769C391.879 156.498 390.245 156.863 388.108 156.863H383.922V165.312H388.296ZM323.996 165.312C329.728 165.312 333.763 163.778 336.101 160.71C337.962 163.753 341.306 165.287 346.133 165.312C350.357 165.312 353.776 163.741 356.391 160.597C358.327 163.741 361.419 165.312 365.668 165.312C369.792 165.312 372.859 163.816 374.87 160.824C376.53 163.816 379.698 165.312 384.374 165.312H385.43V156.863H384.299C382.438 156.863 380.993 156.247 379.962 155.015C378.931 153.783 378.302 151.846 378.076 149.206L377.473 142.077L377.397 141.285L376.605 141.398L370.42 142.115L369.666 142.19L369.741 142.944L369.93 145.245C370.056 146.503 370.119 148.112 370.119 150.074C370.144 152.437 369.779 154.16 369.025 155.241C368.271 156.297 367.139 156.825 365.631 156.825C364.801 156.825 364.072 156.725 363.443 156.524C362.815 156.322 362.287 156.008 361.859 155.581C361.432 155.153 361.093 154.612 360.841 153.959C360.59 153.204 360.439 152.412 360.389 151.582L359.785 142.869L359.748 142.077L358.956 142.152L352.733 142.907L352.016 142.982L352.054 143.699L352.28 146C352.331 146.578 352.368 147.157 352.393 147.735C352.419 148.313 352.431 148.879 352.431 149.432C352.431 150.539 352.381 151.369 352.28 151.922C351.928 153.607 351.262 154.851 350.282 155.656C349.301 156.461 347.943 156.863 346.209 156.863C344.951 156.863 343.908 156.674 343.078 156.297C342.249 155.92 341.62 155.342 341.193 154.562C340.74 153.783 340.476 152.789 340.401 151.582L339.797 142.869L339.722 142.077L338.968 142.152L332.745 142.907L332.028 142.982L332.066 143.699L332.292 146C332.343 146.628 332.38 147.219 332.406 147.773C332.431 148.351 332.443 148.904 332.443 149.432C332.443 150.539 332.38 151.369 332.255 151.922C331.928 153.581 331.098 154.814 329.766 155.618C328.433 156.448 326.535 156.863 324.071 156.863H321.356V165.312H323.996ZM312.562 134.358L312.844 134.075L318.332 128.587L318.614 128.304L312.521 122.21L312.239 122.493L306.751 127.981L306.469 128.264L312.279 134.075L312.562 134.358ZM300.295 134.358L300.577 134.075L306.065 128.587L306.348 128.304L300.255 122.21L299.972 122.493L294.484 127.981L294.202 128.264L300.295 134.358ZM298.728 165.312C304.661 165.312 308.986 163.728 311.701 160.56C313.813 163.728 317.27 165.312 322.072 165.312H322.94V156.863H322.148C320.74 156.863 319.583 156.649 318.678 156.222C317.773 155.794 317.069 155.128 316.566 154.223C316.063 153.343 315.762 152.198 315.661 150.79L315.058 142.077L315.02 141.285L314.228 141.36L308.005 142.115L307.289 142.19L307.364 142.907L307.553 146C307.628 147.106 307.666 148.276 307.666 149.508C307.666 150.664 307.59 151.658 307.439 152.488C306.886 155.405 303.92 156.863 298.539 156.863H294.353V165.312H298.728ZM295.862 165.312V156.863H294.692C290.242 156.863 288.017 153.946 288.017 148.112V112.882H279.947V148.188C279.947 159.604 284.824 165.312 294.579 165.312H295.862ZM242.678 117.033L243.243 116.831L272.74 105.49L272.982 105.41V99.6787L272.417 99.9209L242.961 111.221L242.678 111.342V117.033ZM244.383 165.312C251.85 165.312 257.545 164.156 261.467 161.842C265.389 159.529 267.388 156.033 267.464 151.356C267.539 146.905 265.867 142.844 262.448 139.172C261.492 138.116 260.348 136.96 259.016 135.702C257.709 134.42 256.219 133.043 254.547 131.572C252.875 130.101 251.021 128.498 248.984 126.763L273.121 117.748L273.611 117.559V109.148L272.593 109.525L246.457 119.445C242.611 120.929 240.687 123.469 240.687 127.064C240.687 128.422 241.077 129.743 241.856 131.025C242.636 132.308 243.78 133.54 245.288 134.722C248.28 137.06 251.7 140.015 255.546 143.586C257.985 145.899 259.204 148.175 259.204 150.413C259.179 154.713 254.226 156.863 244.346 156.863H238.462V165.312H244.383ZM207.802 184.587L208.443 184.474C222.547 181.808 230.58 174.994 232.541 164.03C233.899 164.885 236.036 165.312 238.953 165.312H240.046V156.863H238.538C237.507 156.863 236.589 156.674 235.785 156.297C234.98 155.92 234.276 155.342 233.673 154.562C233.069 153.783 232.566 152.789 232.164 151.582L229.826 144.265L229.6 143.548L228.845 143.812L222.585 146.037L221.831 146.302L222.17 147.056C224.106 151.582 225.062 155.505 225.036 158.824C225.036 162.068 224.332 164.897 222.925 167.311C221.517 169.725 219.392 171.75 216.551 173.384C213.71 174.994 210.127 176.201 205.803 177.005L204.898 177.194L205.237 178.024L207.575 183.984L207.802 184.587ZM206.783 165.275V112.882H198.75V165.275H206.783ZM158.737 190.773L158.661 189.943C158.309 185.844 158.133 181.318 158.133 176.364C158.133 173.548 158.253 171.09 158.492 168.99C158.731 166.89 159.083 165.199 159.548 163.917C160.013 162.634 160.547 161.685 161.15 161.069C161.754 160.453 162.433 160.132 163.187 160.107C163.489 160.107 163.853 160.17 164.281 160.296C164.708 160.421 165.173 160.61 165.676 160.861C165.953 160.987 166.223 161.125 166.487 161.276L166.883 161.498L167.279 161.71C167.543 161.848 167.801 161.987 168.052 162.125C168.303 162.263 168.549 162.408 168.787 162.559C169.026 162.71 169.271 162.86 169.523 163.011C173.194 165.124 176.399 166.18 179.14 166.18C181.151 166.18 182.911 165.847 184.419 165.18C185.928 164.514 187.173 163.527 188.153 162.219C189.058 160.987 189.737 159.591 190.19 158.032C190.642 156.473 190.868 154.763 190.868 152.902C190.868 148.628 189.599 144.944 187.059 141.851C184.495 138.732 181.063 137.186 176.764 137.211C170.252 137.236 165.085 141.939 161.264 151.318C157.769 151.997 155.016 154.298 153.004 158.221C150.968 162.244 149.95 168.644 149.95 177.42C149.95 181.444 150.088 185.656 150.365 190.056L150.402 190.773H158.737ZM179.14 157.806C176.877 157.806 173.646 156.209 169.447 153.016C169.925 151.783 170.44 150.708 170.994 149.791C171.547 148.873 172.131 148.125 172.747 147.546C173.363 146.968 174.011 146.54 174.689 146.264C175.368 145.987 176.085 145.849 176.839 145.849C177.141 145.849 177.424 145.868 177.688 145.905C177.952 145.943 178.209 145.993 178.461 146.056C178.712 146.119 178.951 146.195 179.177 146.283C179.404 146.371 179.617 146.471 179.818 146.584C180.02 146.698 180.214 146.83 180.403 146.98C180.592 147.131 180.768 147.295 180.931 147.471C181.094 147.647 181.245 147.842 181.384 148.055C181.522 148.269 181.66 148.496 181.798 148.734C181.937 148.973 182.056 149.231 182.157 149.508C182.66 150.79 182.911 152.073 182.911 153.355C182.936 154.914 182.641 156.046 182.025 156.75C181.409 157.454 180.447 157.806 179.14 157.806Z" fill="white"/>
<path fill-rule="evenodd" clip-rule="evenodd" d="M619.224 81.625C635.017 81.625 647.819 94.7258 647.819 110.886V181.114C647.819 197.274 635.017 210.375 619.224 210.375H550.595C534.803 210.375 522 197.274 522 181.114V110.886C522 94.7258 534.803 81.625 550.595 81.625H619.224ZM619.224 90.4034H550.595C539.54 90.4034 530.579 99.5739 530.579 110.886V181.114C530.579 192.426 539.54 201.597 550.595 201.597H619.224C630.279 201.597 639.241 192.426 639.241 181.114V110.886C639.241 99.5739 630.279 90.4034 619.224 90.4034ZM584.91 110.886C603.861 110.886 619.224 126.607 619.224 146C619.224 165.393 603.861 181.114 584.91 181.114C565.958 181.114 550.595 165.393 550.595 146C550.595 126.607 565.958 110.886 584.91 110.886ZM584.91 119.665C570.696 119.665 559.174 131.455 559.174 146C559.174 160.545 570.696 172.335 584.91 172.335C599.123 172.335 610.645 160.545 610.645 146C610.645 131.455 599.123 119.665 584.91 119.665ZM622.083 99.1818C626.821 99.1818 630.662 103.112 630.662 107.96C630.662 112.808 626.821 116.739 622.083 116.739C617.346 116.739 613.505 112.808 613.505 107.96C613.505 103.112 617.346 99.1818 622.083 99.1818Z" fill="white"/>
<defs>
<linearGradient id="paint0_linear" x1="797.731" y1="140.063" x2="-117.544" y2="362.717" gradientUnits="userSpaceOnUse">
<stop stop-color="#4F5BD5"/>
<stop offset="0.252898" stop-color="#962FBF"/>
<stop offset="0.435377" stop-color="#D62976"/>
<stop offset="0.560393" stop-color="#D62976"/>
<stop offset="0.776953" stop-color="#FA7E1F"/>
<stop offset="1" stop-color="#FEDA75"/>
</linearGradient>
</defs>
</svg>
