<svg width="292" height="292" viewBox="0 0 292 292" fill="none" xmlns="http://www.w3.org/2000/svg">
<path d="M146 256C206.751 256 256 206.751 256 146C256 85.2487 206.751 36 146 36C85.2487 36 36 85.2487 36 146C36 206.751 85.2487 256 146 256Z" fill="url(#paint0_linear)"/>
<path d="M199.538 99.2929L179.901 198.336C179.901 198.336 177.151 205.211 169.589 201.902L124.257 167.14L107.757 159.191L79.9991 149.867C79.9991 149.867 75.7451 148.367 75.3151 145.055C74.8851 141.743 80.1281 139.985 80.1281 139.985L190.472 96.7149C190.472 96.6719 199.538 92.6759 199.538 99.2929Z" fill="white"/>
<path d="M120.734 197.219C120.734 197.219 119.402 197.09 117.769 191.891C116.136 186.692 107.757 159.191 107.757 159.191L174.402 116.867C174.402 116.867 178.269 114.547 178.102 116.867C178.102 116.867 178.79 117.297 176.727 119.187C174.665 121.121 124.391 166.324 124.391 166.324" fill="#D2E4F0"/>
<path d="M141.617 180.461L123.699 196.832C123.283 197.135 122.798 197.329 122.287 197.397C121.777 197.464 121.258 197.403 120.777 197.219L124.215 166.84" fill="#B5CFE4"/>
<defs>
<linearGradient id="paint0_linear" x1="146" y1="36" x2="146" y2="255.12" gradientUnits="userSpaceOnUse">
<stop stop-color="#41BCE7"/>
<stop offset="1" stop-color="#22A6DC"/>
</linearGradient>
</defs>
</svg>
