<svg width="292" height="292" viewBox="0 0 292 292" fill="none" xmlns="http://www.w3.org/2000/svg">
<g clip-path="url(#clip0)">
<path d="M86.1429 35.7971C81.3029 36.0171 74.9229 36.4571 72.0629 37.1171C67.6629 37.9971 63.4829 39.3171 60.1829 41.0771C56.0029 43.0571 52.4829 45.6971 49.4029 48.7771C46.1029 52.0771 43.4629 55.5971 41.4829 59.7771C39.7229 63.0771 38.4029 67.2571 37.5229 71.6571C36.8629 74.5171 36.4229 80.8971 36.4229 85.7371C36.2029 87.7171 36.2029 90.3571 36.2029 91.6771V199.918V205.858C36.4229 210.698 36.8629 217.078 37.5229 219.938C38.4029 224.338 39.7229 228.518 41.4829 231.818C43.4629 235.998 46.1029 239.518 49.1829 242.598C52.4829 245.898 56.0029 248.538 60.1829 250.518C63.4829 252.278 67.6629 253.598 72.0629 254.478C74.9229 255.138 81.3029 255.578 86.1429 255.578C88.1229 255.798 90.7629 255.798 92.0829 255.798H200.323H206.263C211.103 255.578 217.483 255.138 220.343 254.478C224.743 253.598 228.923 252.278 232.223 250.518C236.403 248.538 239.923 245.898 243.003 242.818C246.303 239.518 248.943 235.998 250.923 231.818C252.683 228.518 254.003 224.338 254.883 219.938C255.543 217.078 255.983 210.698 255.983 205.858C256.203 203.878 256.203 201.238 256.203 199.918V85.7371C255.983 80.8971 255.543 74.5171 254.883 71.6571C254.003 67.2571 252.683 63.0771 250.923 59.7771C248.943 55.5971 246.303 52.0771 243.223 48.9971C239.923 45.6971 236.403 43.0571 232.223 41.0771C228.923 39.3171 224.743 37.9971 220.343 37.1171C217.483 36.4571 211.103 36.0171 206.263 36.0171C204.283 35.7971 201.643 35.7971 200.323 35.7971H86.1429V35.7971Z" fill="url(#paint0_linear)"/>
<path fill-rule="evenodd" clip-rule="evenodd" d="M184.133 160.51C182.174 159.529 172.54 154.79 170.744 154.137C168.948 153.483 167.642 153.156 166.336 155.117C165.029 157.078 161.274 161.49 160.131 162.798C158.988 164.105 157.845 164.269 155.886 163.288C153.926 162.308 147.613 160.239 140.128 153.565C134.303 148.371 130.371 141.956 129.228 139.995C128.085 138.034 129.106 136.974 130.087 135.997C130.968 135.12 132.046 133.71 133.026 132.566C134.006 131.422 134.332 130.605 134.985 129.298C135.639 127.991 135.312 126.846 134.822 125.866C134.332 124.885 130.414 115.244 128.781 111.322C127.19 107.502 125.575 108.019 124.372 107.959C123.23 107.902 121.923 107.89 120.617 107.89C119.31 107.89 117.188 108.38 115.391 110.341C113.595 112.302 108.533 117.042 108.533 126.683C108.533 136.324 115.554 145.639 116.534 146.947C117.514 148.254 130.352 168.04 150.008 176.525C154.683 178.543 158.332 179.748 161.178 180.651C165.872 182.141 170.144 181.931 173.52 181.427C177.285 180.864 185.113 176.688 186.746 172.113C188.379 167.537 188.379 163.615 187.889 162.798C187.4 161.981 186.093 161.49 184.133 160.51ZM148.38 209.311H148.354C136.658 209.306 125.187 206.165 115.179 200.228L112.799 198.816L88.1297 205.285L94.7146 181.24L93.1643 178.776C86.64 168.401 83.1943 156.41 83.199 144.098C83.2132 108.172 112.453 78.9425 148.407 78.9425C165.816 78.9494 182.181 85.7363 194.488 98.0525C206.794 110.369 213.567 126.74 213.561 144.151C213.546 180.08 184.307 209.311 148.38 209.311ZM203.854 88.6934C189.048 73.8752 169.358 65.7107 148.38 65.7021C105.156 65.7021 69.9758 100.868 69.9586 144.093C69.953 157.91 73.5637 171.398 80.4262 183.286L69.3008 223.911L110.873 213.009C122.327 219.255 135.223 222.546 148.349 222.551H148.381C191.601 222.551 226.784 187.381 226.801 144.156C226.81 123.208 218.661 103.512 203.854 88.6934Z" fill="white"/>
</g>
<defs>
<linearGradient id="paint0_linear" x1="146.203" y1="255.798" x2="146.203" y2="35.7975" gradientUnits="userSpaceOnUse">
<stop stop-color="#25CF43"/>
<stop offset="1" stop-color="#61FD7D"/>
</linearGradient>
<clipPath id="clip0">
<rect width="220" height="220" fill="white" transform="translate(36 36)"/>
</clipPath>
</defs>
</svg>
