<svg width="1366" height="194" viewBox="0 0 1366 194" fill="none" xmlns="http://www.w3.org/2000/svg">
<path style="mix-blend-mode:multiply" opacity="0.6" d="M1336.61 177.58V128.993H1317.82V121.954H1300.37V135.16C1292.2 133.294 1283.93 131.917 1275.6 131.036V127.685H1257.01V121.892H1239.56V127.685H1198.09V121.892H1175.66V131.584C1167.08 132.506 1159.17 133.602 1151.88 134.823V113.981H1116.11V142.959C1098.36 148.241 1088.08 153.548 1083.9 155.99V123.947H1075.84V94.4834H1049.66V123.947H1044.44V145.5H1039.74V121.892H1019.8V132.668H1011.64V84.5168H984.218V105.26H977.126V102.37H974.783V99.666H977.126V96.2026H974.783V93.5117H977.126V90.0483H974.783V87.3448H977.126V83.8814H974.783V81.178H977.126V77.7146H974.783V75.0236H977.126V71.5602H974.783V68.8568H977.126V65.3934H974.783V62.7024H977.126V59.2265H974.783V56.5231H977.126V53.0597H944.97V56.5231H947.301V59.2265H944.97V62.69H947.301V65.3809H944.97V68.8443H947.301V71.5602H944.97V75.0236H947.301V77.7146H944.97V81.178H947.301V83.8814H944.97V87.3448H947.301V90.0483H944.97V93.5117H947.301V94.4834H908.876V136.405H903.38V69.1309H882.192V109.695H876.783V94.4834H859.334V21.1043H844.066V29.9621H838.794V26.4987H814.49V29.9621H809.816V26.4987H785.512V29.9621H780.839V26.4987H756.535V29.9621H751.861V26.4987H727.557V29.9621H724.13V21.1043H712.289V29.9621H708.862V21.1043H697.021V29.9621H692.348V26.4987H668.044V29.9621H663.682V26.4987H639.378V29.9621H635.639V21.1043H620.371V44.2143H593.774V51.6893H579.914V71.6848H573.483V40.5391H561.257V39.8415H565.357V37.9105H561.257V35.4188H565.357V33.4878H561.257V30.9962H565.357V29.0651H561.257V26.5734H565.357V24.6424H561.257V22.1507H565.357V20.2197H561.257V17.7281H565.357V15.7971H561.257V12.1966H549.329V-7.70876e-06H524.551V12.1966H512.624V15.7971H508.511V17.7281H512.611V20.2197H508.511V22.1507H512.611V24.6424H508.511V26.5734H512.611V29.0651H508.511V30.9962H512.611V33.4878H508.511V35.4188H512.611V37.9105H508.511V39.8415H512.611V42.3331H508.511V44.2642H512.611V46.7558H508.511V48.637H512.611V51.1287H508.511V53.0597H512.611V55.5513H508.511V57.4824H512.611V59.2265H506.268V77.9139H501.993V64.2098H497.593V43.3048H495.025V38.3964L470.784 14.8752L446.53 38.3964V43.3048H443.962V106.506H438.217V5.45672H407.058V92.8016H401.823V47.9518H390.731V18.8742H385.521V15.6974H374.528V18.8742H351.87V15.6974H337.138V78.2877H313.893V118.241H305.493V51.6644H279.32V89.0391H271.019V62.0172H239.86V97.7849H231.821V88.6654H214.871V70.3767H205.187V58.342H188.461V46.706H186.317V43.5167H182.491V34.31H170.251V43.5042H165.353V46.6935H156.953V43.5042H142.221V46.6935H137.722V100.264H130.667V35.4811H121.943V32.0551H107.261V35.4811H102.039V32.0551H98.5614V35.4811H94.7226V32.0551H79.9284V90.3099H64.8102V113.981H51.7235V130.176H36.5555V164.698H32.4799V177.58H0V194H1366V177.58H1336.61ZM1111.02 145.973L1109.1 148.328L1106.46 147.518C1107.93 146.97 1109.45 146.434 1111.05 145.936L1111.02 145.973ZM1102.3 149.038L1100.35 151.343L1097.86 150.795C1099.28 150.172 1100.71 149.599 1102.31 149.001L1102.3 149.038ZM1093.57 152.589L1091.99 154.619L1089.88 154.296C1091.04 153.722 1092.28 153.149 1093.64 152.551L1093.57 152.589ZM1083.84 157.497C1084.4 157.173 1085.09 156.762 1085.99 156.251L1085.05 157.771L1083.8 157.535L1083.84 157.497ZM1088.28 159.678C1086.71 160.413 1085.25 161.16 1083.91 161.92L1085.65 159.179L1088.28 159.678ZM1083.84 158.83L1084.32 158.93L1083.84 159.69V158.83ZM1083.84 177.58V168.099C1084.75 171.574 1086.4 174.809 1088.69 177.58H1083.84ZM1086.33 158.045L1088.08 155.28L1091.11 155.753L1088.95 158.544L1086.33 158.045ZM1090.39 158.706L1092.51 155.965L1095.9 156.501C1094 157.198 1092.19 157.921 1090.48 158.668L1090.39 158.706ZM1093.37 154.844L1095.87 151.654L1099.39 152.427L1096.9 155.379L1093.37 154.844ZM1098.27 155.653L1100.76 152.726L1104.65 153.573C1102.48 154.221 1100.38 154.902 1098.36 155.616L1098.27 155.653ZM1101.65 151.642L1104.52 148.253L1108.18 149.362L1105.6 152.502L1101.65 151.642ZM1106.9 152.888L1109.46 149.761L1113.63 151.007C1111.37 151.596 1109.15 152.211 1106.98 152.85L1106.9 152.888ZM1116.02 150.396H1115.87L1116.02 150.222V150.396ZM1116.02 148.403L1114.59 149.985L1110.32 148.739L1113.08 145.388L1116.02 146.347V148.403ZM1116.02 144.989L1115.03 144.665L1116.02 144.379V144.989ZM1164.13 134.275L1160.68 137.415L1156.61 135.371C1159.11 134.981 1161.64 134.611 1164.22 134.263L1164.13 134.275ZM1151.79 136.169L1152.5 136.044L1151.79 136.704V136.169ZM1151.79 143.395V141.588L1154.57 142.971L1151.79 143.395ZM1151.79 140.193V138.411L1154.59 135.783L1159.68 138.274L1155.54 142.012L1151.79 140.193ZM1156.78 142.684L1160.93 138.947L1166 141.439C1162.92 141.812 1159.86 142.232 1156.83 142.697L1156.78 142.684ZM1161.91 138.025L1166.22 134.126L1171.84 136.891L1167.05 140.567L1161.91 138.025ZM1175.62 140.33C1173.13 140.591 1170.73 140.866 1168.34 141.152L1173.1 137.502L1175.6 138.748L1175.62 140.33ZM1175.62 137.352L1174.21 136.655L1175.62 135.571V137.352ZM1175.62 134.001L1172.95 136.044L1168.32 133.764C1170.7 133.465 1173.14 133.191 1175.62 132.917V134.001ZM1297.45 135.845L1292.14 137.028L1288.09 134.051C1291.44 134.607 1294.56 135.205 1297.45 135.845ZM1275.61 132.307C1278.11 132.589 1280.53 132.901 1282.89 133.241L1278.36 134.773L1275.61 132.656V132.307ZM1275.61 134.238L1276.94 135.259L1275.61 135.708V134.238ZM1275.61 138.511V137.016L1278.11 136.169L1282.28 139.395C1280.13 139.084 1277.88 138.785 1275.6 138.511H1275.61ZM1279.54 135.695L1285.49 133.677L1290.47 137.415L1283.74 138.959L1279.54 135.695ZM1285.22 139.844L1291.87 138.374L1296.85 142.111C1293.22 141.272 1289.34 140.517 1285.21 139.844H1285.22ZM1300.38 142.884L1299.63 142.697L1300.38 142.473V142.884ZM1300.38 141.177L1298.54 141.725L1293.47 137.988L1300.14 136.493L1300.38 136.792V141.177Z" fill="#1D1E2A"/>
</svg>
