<svg width="24" height="24" viewBox="0 0 24 24" fill="none" xmlns="http://www.w3.org/2000/svg">
<path fill-rule="evenodd" clip-rule="evenodd" d="M24 12C24 5.37152 18.627 0 12 0C5.373 0 0 5.373 0 12C0 18.627 5.373 24 12 24C18.627 24 24 18.627 24 12ZM19.1511 7.91921C19.1511 6.03407 17.6574 4.50586 15.8149 4.50586H7.80792C5.96537 4.50586 4.47168 6.03407 4.47168 7.91921V16.1113C4.47168 17.9964 5.96537 19.5246 7.80792 19.5246H15.8149C17.6574 19.5246 19.1511 17.9964 19.1511 16.1113V7.91921ZM7.80792 5.52987H15.8149C17.1047 5.52987 18.1503 6.59961 18.1503 7.91921V16.1113C18.1503 17.4309 17.1047 18.5006 15.8149 18.5006H7.80792C6.51813 18.5006 5.47255 17.4309 5.47255 16.1113V7.91921C5.47255 6.59961 6.51813 5.52987 7.80792 5.52987ZM15.8149 12.0152C15.8149 9.75306 14.0225 7.91921 11.8114 7.91921C9.60034 7.91921 7.80792 9.75306 7.80792 12.0152C7.80792 14.2774 9.60034 16.1113 11.8114 16.1113C14.0225 16.1113 15.8149 14.2774 15.8149 12.0152ZM8.80879 12.0152C8.80879 10.3186 10.1531 8.94322 11.8114 8.94322C13.4697 8.94322 14.814 10.3186 14.814 12.0152C14.814 13.7119 13.4697 15.0873 11.8114 15.0873C10.1531 15.0873 8.80879 13.7119 8.80879 12.0152ZM17.1494 7.57788C17.1494 7.01233 16.7013 6.55387 16.1485 6.55387C15.5958 6.55387 15.1476 7.01233 15.1476 7.57788C15.1476 8.14342 15.5958 8.60188 16.1485 8.60188C16.7013 8.60188 17.1494 8.14342 17.1494 7.57788Z" fill="#55566B"/>
</svg>
