<svg width="32" height="32" viewBox="0 0 32 32" fill="none" xmlns="http://www.w3.org/2000/svg">
<path d="M15.98 0C7.15506 0 0 7.15506 0 15.98C0 24.805 7.15506 31.96 15.98 31.96C24.805 31.96 31.96 24.805 31.96 15.98C31.96 7.15308 24.805 0 15.98 0ZM11.985 23.7203H7.99001V9.73779H11.985V23.7203ZM10.1113 8.88089C9.07663 8.88089 8.2397 8.04192 8.2397 7.00721C8.2397 5.9725 9.07867 5.13354 10.1113 5.13354C11.1461 5.13551 11.985 5.97447 11.985 7.00721C11.985 8.04192 11.1461 8.88089 10.1113 8.88089ZM25.9675 23.7203H21.9725V15.0752C21.9725 14.0624 21.6829 13.3533 20.4384 13.3533C18.375 13.3533 17.9775 15.0752 17.9775 15.0752V23.7203H13.9825V9.73779H17.9775V11.0741C18.5488 10.6367 19.975 9.73976 21.9725 9.73976C23.2669 9.73976 25.9675 10.5148 25.9675 15.1969V23.7203Z" fill="#2878B5"/>
</svg>
