<svg width="24" height="24" viewBox="0 0 24 24" fill="none" xmlns="http://www.w3.org/2000/svg">
<path d="M11.985 0C5.36629 0 0 5.36629 0 11.985C0 18.6037 5.36629 23.97 11.985 23.97C18.6037 23.97 23.97 18.6037 23.97 11.985C23.97 5.36481 18.6037 0 11.985 0ZM8.98876 17.7903H5.99251V7.30334H8.98876V17.7903ZM7.58351 6.66066C6.80747 6.66066 6.17978 6.03144 6.17978 5.25541C6.17978 4.47938 6.809 3.85015 7.58351 3.85015C8.35954 3.85163 8.98876 4.48085 8.98876 5.25541C8.98876 6.03144 8.35954 6.66066 7.58351 6.66066ZM19.4756 17.7903H16.4794V11.3064C16.4794 10.5468 16.2621 10.015 15.3288 10.015C13.7812 10.015 13.4831 11.3064 13.4831 11.3064V17.7903H10.4869V7.30334H13.4831V8.30558C13.9116 7.97751 14.9812 7.30482 16.4794 7.30482C17.4502 7.30482 19.4756 7.88609 19.4756 11.3977V17.7903Z" fill="#55566B"/>
</svg>
