<svg width="24" height="24" viewBox="0 0 24 24" fill="none" xmlns="http://www.w3.org/2000/svg">
<path d="M11.9165 0C5.34576 0 0 5.34576 0 11.9165C0 18.4867 5.34576 23.833 11.9165 23.833C18.4867 23.833 23.833 18.4867 23.833 11.9165C23.833 5.34576 18.4877 0 11.9165 0ZM17.2325 9.18912C17.2378 9.3072 17.2406 9.42624 17.2406 9.54528C17.2406 13.1698 14.4826 17.3477 9.43632 17.3477C7.88736 17.3477 6.44544 16.895 5.232 16.1165C5.44656 16.1419 5.66496 16.1549 5.88624 16.1549C7.17168 16.1549 8.35392 15.7162 9.2928 14.9808C8.0928 14.9587 7.07952 14.1658 6.73056 13.0757C6.8976 13.1074 7.06992 13.1251 7.24608 13.1251C7.49616 13.1251 7.73904 13.0925 7.96896 13.0296C6.71424 12.7781 5.76912 11.6698 5.76912 10.3402C5.76912 10.3286 5.76912 10.3166 5.7696 10.3056C6.1392 10.5106 6.56208 10.6344 7.01136 10.6483C6.276 10.1573 5.79168 9.31728 5.79168 8.36592C5.79168 7.86288 5.92656 7.39152 6.16272 6.9864C7.51488 8.64624 9.53664 9.73776 11.8157 9.85296C11.7686 9.65184 11.7451 9.44304 11.7451 9.22752C11.7451 7.71312 12.973 6.4848 14.4874 6.4848C15.2765 6.4848 15.9883 6.81792 16.4894 7.35072C17.1149 7.22784 17.7005 7.00032 18.2318 6.68496C18.0254 7.32576 17.592 7.86288 17.0242 8.20272C17.5795 8.13648 18.1094 7.9896 18.5995 7.7712C18.2338 8.32032 17.7686 8.80368 17.2325 9.18912Z" fill="#55566B"/>
</svg>
