<svg width="32" height="32" viewBox="0 0 32 32" fill="none" xmlns="http://www.w3.org/2000/svg">
<path d="M15.8886 0C7.12768 0 0 7.12768 0 15.8886C0 24.649 7.12768 31.7773 15.8886 31.7773C24.649 31.7773 31.7773 24.649 31.7773 15.8886C31.7773 7.12768 24.6502 0 15.8886 0ZM22.9766 12.2522C22.9837 12.4096 22.9875 12.5683 22.9875 12.727C22.9875 17.5597 19.3101 23.1302 12.5818 23.1302C10.5165 23.1302 8.59392 22.5267 6.976 21.4886C7.26208 21.5226 7.55328 21.5398 7.84832 21.5398C9.56224 21.5398 11.1386 20.9549 12.3904 19.9744C10.7904 19.945 9.43936 18.8877 8.97408 17.4342C9.1968 17.4765 9.42656 17.5002 9.66144 17.5002C9.99488 17.5002 10.3187 17.4566 10.6253 17.3728C8.95232 17.0374 7.69216 15.5597 7.69216 13.7869C7.69216 13.7715 7.69216 13.7555 7.6928 13.7408C8.1856 14.0141 8.74944 14.1792 9.34848 14.1978C8.368 13.543 7.72224 12.423 7.72224 11.1546C7.72224 10.4838 7.90208 9.85536 8.21696 9.3152C10.0198 11.5283 12.7155 12.9837 15.7542 13.1373C15.6915 12.8691 15.6602 12.5907 15.6602 12.3034C15.6602 10.2842 17.2973 8.6464 19.3165 8.6464C20.3686 8.6464 21.3178 9.09056 21.9859 9.80096C22.8198 9.63712 23.6006 9.33376 24.3091 8.91328C24.0339 9.76768 23.456 10.4838 22.6989 10.937C23.4394 10.8486 24.1459 10.6528 24.7994 10.3616C24.3117 11.0938 23.6915 11.7382 22.9766 12.2522Z" fill="#38A1F3"/>
</svg>
