<svg width="24" height="24" xmlns="http://www.w3.org/2000/svg">

 <g>
  <title>background</title>
  <rect fill="none" id="canvas_background" height="402" width="582" y="-1" x="-1"/>
 </g>
 <g>
  <title>Layer 1</title>
  <path id="svg_2" fill="#55566b" d="m12,0c-6.62744,0 -12,5.37256 -12,12c0,2.4574 0.74152,4.7403 2.00897,6.64276l-2.00897,5.35724l5.35724,-2.00897c1.9024,1.26739 4.18536,2.00897 6.64276,2.00897c6.62744,0 12,-5.37262 12,-12c0,-6.62744 -5.37256,-12 -12,-12z"/>
  <path id="svg_3" fill="#222332" d="m17.7207,14.05127c-0.00097,-0.00049 -1.22461,-0.60156 -1.99218,-0.99609c-0.86475,-0.44385 -1.88672,0.39013 -2.36817,0.86572c-0.43555,-0.16944 -1.30029,-0.56787 -2.00683,-1.27442s-1.10498,-1.57128 -1.27442,-2.00683c0.47608,-0.48096 1.31104,-1.50049 0.86572,-2.36817c-0.39453,-0.76757 -0.9956,-1.99121 -0.99609,-1.99218c-0.08398,-0.1709 -0.2583,-0.2793 -0.44873,-0.2793l-1,0c-1.12549,0 -2.5,1.38428 -2.5,3c0,1.57031 1.87939,4.58643 3.14648,5.85352s4.28321,3.14648 5.85352,3.14648c1.61572,0 3,-1.37451 3,-2.5l0,-1c0,-0.19043 -0.1084,-0.36475 -0.2793,-0.44873z"/>
 </g>
</svg>